<svg xmlns="http://www.w3.org/2000/svg" viewBox="0 0 440 230" width="440" height="230" role="img" aria-label="PadelGPT: AI assistant for padel players">
<title>PadelGPT</title>
<defs>
  <filter id="glow" x="-200%" y="-200%" width="500%" height="500%"><feGaussianBlur stdDeviation="2" result="b"/><feMerge><feMergeNode in="b"/><feMergeNode in="SourceGraphic"/></feMerge></filter>
  <pattern id="dots" width="22" height="22" patternUnits="userSpaceOnUse"><circle cx="1" cy="1" r="1" fill="#21262d"/></pattern>
  <linearGradient id="edge" x1="0" x2="1"><stop offset="0" stop-color="#58A6FF" stop-opacity="0"/><stop offset=".5" stop-color="#58A6FF"/><stop offset="1" stop-color="#58A6FF" stop-opacity="0"/></linearGradient>
</defs>
<style>
  .mono { font: 12px ui-monospace, SFMono-Regular, Consolas, "Liberation Mono", monospace; fill: #e6edf3; }
  .sans { font: 600 20px "Segoe UI", Ubuntu, "Helvetica Neue", sans-serif; fill: #e6edf3; }
  .dim { fill: #7d8590; }
  .flow { stroke-dasharray: 3 3; animation: flow 1s linear infinite; }
  .blink { animation: blink 2s ease-in-out infinite; }
  @keyframes flow { to { stroke-dashoffset: -6; } }
  @keyframes blink { 50% { opacity: .3; } }
  @media (prefers-reduced-motion: reduce) { .flow, .blink { animation: none; } }
</style>
<rect width="440" height="230" rx="12" fill="#0d1117"/>
<rect width="440" height="230" rx="12" fill="url(#dots)"/>
<rect x=".5" y=".5" width="439" height="229" rx="12" fill="none" stroke="#30363d"/>
<path d="M12 0h416a12 12 0 0 1 12 12v22H0V12A12 12 0 0 1 12 0z" fill="#161b22"/>
<line x1="0" y1="34" x2="440" y2="34" stroke="#30363d"/>
<line x1="40" y1="34" x2="400" y2="34" stroke="url(#edge)"/>
<circle cx="20" cy="17" r="5" fill="#ff5f57"/><circle cx="36" cy="17" r="5" fill="#febc2e"/><circle cx="52" cy="17" r="5" fill="#28c840"/>
<text x="70" y="21" class="mono dim">~/padelos/padelgpt</text>
<circle cx="24" cy="64" r="5" fill="#58A6FF" filter="url(#glow)" class="blink"/>
<text x="38" y="71" class="sans">PadelGPT</text>
<rect x="328.8" y="52" width="91.2" height="22" rx="11" fill="#58A6FF" fill-opacity=".12" stroke="#58A6FF" stroke-opacity=".5"/>
<circle cx="340.8" cy="63" r="3" fill="#58A6FF" class="blink"/>
<text x="348.8" y="67" class="mono" style="fill:#58A6FF">@ PadelOS</text>
<text x="24" y="96" class="mono dim">AI assistant for padel players</text>
<rect x="35.0" y="124" width="61.5" height="26" rx="6" fill="#161b22" stroke="#58A6FF"/><text x="65.8" y="141" class="mono" text-anchor="middle">player</text><line x1="98.5" y1="137" x2="116.5" y2="137" stroke="#58A6FF" class="flow"/><path d="M112.5 133l4 4-4 4" fill="none" stroke="#58A6FF"/><rect x="118.5" y="124" width="54.2" height="26" rx="6" fill="#161b22" stroke="#30363d"/><text x="145.6" y="141" class="mono" text-anchor="middle">agent</text><line x1="174.8" y1="137" x2="192.8" y2="137" stroke="#58A6FF" class="flow"/><path d="M188.8 133l4 4-4 4" fill="none" stroke="#58A6FF"/><rect x="194.8" y="124" width="126.8" height="26" rx="6" fill="#161b22" stroke="#30363d"/><text x="258.1" y="141" class="mono" text-anchor="middle">padel knowledge</text><line x1="323.5" y1="137" x2="341.5" y2="137" stroke="#58A6FF" class="flow"/><path d="M337.5 133l4 4-4 4" fill="none" stroke="#58A6FF"/><rect x="343.5" y="124" width="61.5" height="26" rx="6" fill="#161b22" stroke="#58A6FF"/><text x="374.2" y="141" class="mono" text-anchor="middle">answer</text><circle r="3" cx="65.8" opacity="0" cy="137" fill="#58A6FF" filter="url(#glow)"><animate attributeName="cx" values="65.8;374.2" dur="3s" begin="0.0s" repeatCount="indefinite"/><animate attributeName="opacity" values="0;1;1;0" dur="3s" begin="0.0s" repeatCount="indefinite"/></circle>
<rect x="24.0" y="184" width="37.8" height="22" rx="11" fill="none" stroke="#30363d"/><text x="42.9" y="199" class="mono dim" text-anchor="middle">LLM</text><rect x="69.8" y="184" width="59.5" height="22" rx="11" fill="none" stroke="#30363d"/><text x="99.5" y="199" class="mono dim" text-anchor="middle">Agents</text><rect x="137.2" y="184" width="66.8" height="22" rx="11" fill="none" stroke="#30363d"/><text x="170.6" y="199" class="mono dim" text-anchor="middle">PadelOS</text>
</svg>
