<svg xmlns="http://www.w3.org/2000/svg" viewBox="0 0 440 230" width="440" height="230" role="img" aria-label="OrderDeck: Order management SaaS">
<title>OrderDeck</title>
<defs>
  <filter id="glow" x="-200%" y="-200%" width="500%" height="500%"><feGaussianBlur stdDeviation="2" result="b"/><feMerge><feMergeNode in="b"/><feMergeNode in="SourceGraphic"/></feMerge></filter>
  <pattern id="dots" width="22" height="22" patternUnits="userSpaceOnUse"><circle cx="1" cy="1" r="1" fill="#2A2725"/></pattern>
  <linearGradient id="edge" x1="0" x2="1"><stop offset="0" stop-color="#F15629" stop-opacity="0"/><stop offset=".5" stop-color="#F15629"/><stop offset="1" stop-color="#F15629" stop-opacity="0"/></linearGradient>
</defs>
<style>
  .mono { font: 12px ui-monospace, SFMono-Regular, Consolas, "Liberation Mono", monospace; fill: #FAF7F4; }
  .sans { font: 600 20px "Segoe UI", Ubuntu, "Helvetica Neue", sans-serif; fill: #FAF7F4; }
  .dim { fill: #948D86; }
  .flow { stroke-dasharray: 3 3; animation: flow 1s linear infinite; }
  .blink { animation: blink 2s ease-in-out infinite; }
  @keyframes flow { to { stroke-dashoffset: -6; } }
  @keyframes blink { 50% { opacity: .3; } }
  @media (prefers-reduced-motion: reduce) { .flow, .blink { animation: none; } }
</style>
<rect width="440" height="230" rx="12" fill="#121212"/>
<rect width="440" height="230" rx="12" fill="url(#dots)"/>
<rect x=".5" y=".5" width="439" height="229" rx="12" fill="none" stroke="#3A3532"/>
<path d="M12 0h416a12 12 0 0 1 12 12v22H0V12A12 12 0 0 1 12 0z" fill="#1C1A19"/>
<line x1="0" y1="34" x2="440" y2="34" stroke="#3A3532"/>
<line x1="40" y1="34" x2="400" y2="34" stroke="url(#edge)"/>
<circle cx="20" cy="17" r="5" fill="#3A3532"/><circle cx="36" cy="17" r="5" fill="#3A3532"/><circle cx="52" cy="17" r="5" fill="#3A3532"/>
<text x="70" y="21" class="mono dim">~/orderdeck/app</text>
<circle cx="24" cy="64" r="5" fill="#F15629" filter="url(#glow)" class="blink"/>
<text x="38" y="71" class="sans">OrderDeck</text>
<rect x="365.0" y="52" width="55.0" height="22" rx="11" fill="#F15629" fill-opacity=".12" stroke="#F15629" stroke-opacity=".5"/>
<circle cx="377.0" cy="63" r="3" fill="#F15629" class="blink"/>
<text x="385.0" y="67" class="mono" style="fill:#F15629">SaaS</text>
<text x="24" y="96" class="mono dim">Order management SaaS</text>
<rect x="71.2" y="124" width="54.2" height="26" rx="6" fill="#1C1A19" stroke="#F15629"/><text x="98.4" y="141" class="mono" text-anchor="middle">order</text><line x1="127.5" y1="137" x2="145.5" y2="137" stroke="#F15629" class="flow"/><path d="M141.5 133l4 4-4 4" fill="none" stroke="#F15629"/><rect x="147.5" y="124" width="54.2" height="26" rx="6" fill="#1C1A19" stroke="#3A3532"/><text x="174.6" y="141" class="mono" text-anchor="middle">track</text><line x1="203.8" y1="137" x2="221.8" y2="137" stroke="#F15629" class="flow"/><path d="M217.8 133l4 4-4 4" fill="none" stroke="#F15629"/><rect x="223.8" y="124" width="61.5" height="26" rx="6" fill="#1C1A19" stroke="#3A3532"/><text x="254.5" y="141" class="mono" text-anchor="middle">fulfil</text><line x1="287.2" y1="137" x2="305.2" y2="137" stroke="#F15629" class="flow"/><path d="M301.2 133l4 4-4 4" fill="none" stroke="#F15629"/><rect x="307.2" y="124" width="61.5" height="26" rx="6" fill="#1C1A19" stroke="#F15629"/><text x="338.0" y="141" class="mono" text-anchor="middle">report</text><circle r="3" cx="98.4" opacity="0" cy="137" fill="#F15629" filter="url(#glow)"><animate attributeName="cx" values="98.4;338.0" dur="3s" begin="0.0s" repeatCount="indefinite"/><animate attributeName="opacity" values="0;1;1;0" dur="3s" begin="0.0s" repeatCount="indefinite"/></circle>
<rect x="24.0" y="184" width="45.0" height="22" rx="11" fill="none" stroke="#3A3532"/><text x="46.5" y="199" class="mono dim" text-anchor="middle">SaaS</text><rect x="77.0" y="184" width="66.8" height="22" rx="11" fill="none" stroke="#3A3532"/><text x="110.4" y="199" class="mono dim" text-anchor="middle">Web app</text>
</svg>
